<svg xmlns="http://www.w3.org/2000/svg" viewBox="0 0 240 240" fill="none">
  <rect width="240" height="240" rx="16" fill="#fff" stroke="#cbd5e1" stroke-width="2"/>
  <!-- QR-like pattern (placeholder) -->
  <rect x="28" y="28" width="64" height="64" rx="8" fill="#1e293b"/>
  <rect x="36" y="36" width="12" height="12" rx="2" fill="#fff"/>
  <rect x="56" y="36" width="12" height="12" rx="2" fill="#fff"/>
  <rect x="72" y="36" width="12" height="12" rx="2" fill="#fff"/>
  <rect x="36" y="56" width="12" height="12" rx="2" fill="#fff"/>
  <rect x="72" y="56" width="12" height="12" rx="2" fill="#fff"/>
  <rect x="36" y="72" width="12" height="12" rx="2" fill="#fff"/>
  <rect x="56" y="72" width="12" height="12" rx="2" fill="#fff"/>
  <rect x="72" y="72" width="12" height="12" rx="2" fill="#fff"/>

  <rect x="148" y="28" width="64" height="64" rx="8" fill="#1e293b"/>
  <rect x="156" y="36" width="12" height="12" rx="2" fill="#fff"/>
  <rect x="176" y="36" width="12" height="12" rx="2" fill="#fff"/>
  <rect x="192" y="36" width="12" height="12" rx="2" fill="#fff"/>
  <rect x="156" y="56" width="12" height="12" rx="2" fill="#fff"/>
  <rect x="192" y="56" width="12" height="12" rx="2" fill="#fff"/>
  <rect x="156" y="72" width="12" height="12" rx="2" fill="#fff"/>
  <rect x="176" y="72" width="12" height="12" rx="2" fill="#fff"/>
  <rect x="192" y="72" width="12" height="12" rx="2" fill="#fff"/>

  <rect x="28" y="148" width="64" height="64" rx="8" fill="#1e293b"/>
  <rect x="36" y="156" width="12" height="12" rx="2" fill="#fff"/>
  <rect x="56" y="156" width="12" height="12" rx="2" fill="#fff"/>
  <rect x="72" y="156" width="12" height="12" rx="2" fill="#fff"/>
  <rect x="36" y="176" width="12" height="12" rx="2" fill="#fff"/>
  <rect x="72" y="176" width="12" height="12" rx="2" fill="#fff"/>
  <rect x="36" y="192" width="12" height="12" rx="2" fill="#fff"/>
  <rect x="56" y="192" width="12" height="12" rx="2" fill="#fff"/>
  <rect x="72" y="192" width="12" height="12" rx="2" fill="#fff"/>

  <!-- Dots pattern in the middle area -->
  <circle cx="130" cy="70" r="5" fill="#1e293b"/>
  <circle cx="150" cy="80" r="5" fill="#1e293b"/>
  <circle cx="120" cy="100" r="5" fill="#1e293b"/>
  <circle cx="140" cy="110" r="5" fill="#1e293b"/>
  <circle cx="110" cy="90" r="5" fill="#1e293b"/>
  <circle cx="160" cy="100" r="5" fill="#1e293b"/>
  <circle cx="100" cy="120" r="5" fill="#1e293b"/>
  <circle cx="170" cy="130" r="5" fill="#1e293b"/>
  <circle cx="120" cy="130" r="7" fill="#1e293b"/>
  <circle cx="150" cy="150" r="7" fill="#1e293b"/>

  <!-- Text -->
  <rect x="50" y="210" width="140" height="20" rx="4" fill="#fef3c7"/>
  <text x="120" y="224" text-anchor="middle" font-size="11" font-family="sans-serif" fill="#92400e">
    GANTI DENGAN QRIS KAMU
  </text>
</svg>
